<svg width="120" height="120" viewBox="0 0 120 120" fill="none" xmlns="http://www.w3.org/2000/svg">
<path d="M34.5419 46.1286C34.5419 39.1574 37.3221 32.8274 41.825 28.1743C44.1529 30.8155 45.5702 34.2778 45.5702 38.0668V42.3502C45.5702 51.8695 52.8892 59.7071 62.1947 60.5423V64.4088H65.4863V50.2435H62.1947V57.2366C54.7071 56.414 48.8618 50.053 48.8618 42.3502V38.0668C48.8618 33.4256 47.1193 29.1859 44.258 25.9599C48.6805 22.4171 54.2845 20.2917 60.3789 20.2917C74.6254 20.2917 86.2166 31.8821 86.2166 46.1286C86.2166 53.0998 83.4364 59.4298 78.9328 64.0822C76.6049 61.4418 75.1883 57.9794 75.1883 54.1911V49.9077C75.1883 39.8332 66.9925 31.6374 56.918 31.6374H55.2722V42.0137H58.5638V35.0185C66.0521 35.8404 71.8967 42.2042 71.8967 49.9077V54.1911C71.8967 58.8316 73.6392 63.0713 76.5005 66.2973C72.0773 69.8401 66.4732 71.9656 60.3789 71.9656C46.1324 71.9656 34.5419 60.3751 34.5419 46.1286ZM90.1671 69.1699C86.879 69.1699 83.8371 68.1018 81.3638 66.2994C86.4014 61.0608 89.5075 53.9527 89.5075 46.1286C89.5075 30.067 76.4405 17 60.3789 17C53.3399 17 46.8767 19.5107 41.8355 23.682C38.7323 21.251 34.8298 19.7964 30.5914 19.7964V23.088C33.8788 23.088 36.9207 24.1554 39.394 25.9578C34.3571 31.1964 31.2503 38.3045 31.2503 46.1286C31.2503 62.1902 44.3173 75.2572 60.3789 75.2572C67.4185 75.2572 73.8818 72.7465 78.923 68.5752C82.0255 71.0062 85.9287 72.4615 90.1671 72.4615V69.1699Z" fill="white"/>
<path d="M9.12565 86.7112L6.29751 94.9621H11.9538L9.12565 86.7112ZM5.39384 97.6732L3.26551 103.621H0L7.43469 83.2122H10.7877L18.2217 103.621H14.9562L12.8575 97.6732H5.39384Z" fill="white"/>
<path d="M31.4289 92.5713C30.7291 91.9004 29.3302 90.9092 27.4057 90.9092C24.519 90.9092 22.5953 93.125 22.5953 96.011C22.5953 98.9266 24.694 101.172 27.5221 101.172C29.4755 101.172 30.8462 100.064 31.4874 99.4811L32.3911 102.105C31.6327 102.776 29.8839 103.999 27.3471 103.999C22.7117 103.999 19.3883 100.589 19.3883 96.011C19.3883 91.463 22.7991 88.0232 27.3182 88.0232C29.8254 88.0232 31.5163 89.1308 32.3911 89.8891L31.4289 92.5713Z" fill="white"/>
<path d="M46.0355 92.5713C45.3357 91.9004 43.9361 90.9092 42.0124 90.9092C39.1257 90.9092 37.2012 93.125 37.2012 96.011C37.2012 98.9266 39.3007 101.172 42.1288 101.172C44.0822 101.172 45.4528 100.064 46.0941 99.4811L46.9971 102.105C46.2394 102.776 44.4906 103.999 41.9538 103.999C37.3184 103.999 33.995 100.589 33.995 96.011C33.995 91.463 37.4058 88.0232 41.9249 88.0232C44.4321 88.0232 46.123 89.1308 46.9971 89.8891L46.0355 92.5713Z" fill="white"/>
<path d="M60.117 94.583C60.0006 92.0751 58.2511 90.6763 56.0649 90.6763C53.8781 90.6763 52.1871 92.1922 51.9825 94.583H60.117ZM56.0353 88.0231C60.6419 88.0231 63.3536 91.2011 63.3536 95.9826C63.3536 96.245 63.3536 96.5075 63.324 96.7692H51.8661C51.9247 99.4809 53.8781 101.23 56.5891 101.23C58.8931 101.23 60.2045 99.9472 60.7879 99.1021L62.8866 100.676C62.1579 101.93 60.1467 104 56.5312 104C51.7787 104 48.6302 100.676 48.6302 96.0694C48.6302 91.3465 51.8661 88.0231 56.0353 88.0231Z" fill="white"/>
<path d="M66.8229 99.3933C67.5227 100.414 68.5716 101.376 70.4672 101.376C71.8082 101.376 72.7994 100.705 72.7994 99.4808C72.7994 96.5659 65.3943 97.6148 65.3943 92.3381C65.3943 89.656 67.668 88.0229 70.6132 88.0229C73.4703 88.0229 74.9863 89.6849 75.569 90.851L73.3821 92.3092C72.9454 91.6094 72.1285 90.6175 70.4376 90.6175C69.2715 90.6175 68.3967 91.2298 68.3967 92.2796C68.3967 95.1952 75.8314 93.9705 75.8314 99.3347C75.8314 102.163 73.4406 104 70.3212 104C67.2306 104 65.5982 102.338 64.8398 100.968L66.8229 99.3933Z" fill="white"/>
<path d="M79.2425 99.3933C79.9423 100.414 80.992 101.376 82.8868 101.376C84.2279 101.376 85.219 100.705 85.219 99.4808C85.219 96.5659 77.8139 97.6148 77.8139 92.3381C77.8139 89.656 80.0876 88.0229 83.0328 88.0229C85.8899 88.0229 87.4059 89.6849 87.9893 90.851L85.8024 92.3092C85.365 91.6094 84.5482 90.6175 82.8579 90.6175C81.6911 90.6175 80.817 91.2298 80.817 92.2796C80.817 95.1952 88.251 93.9705 88.251 99.3347C88.251 102.163 85.861 104 82.7415 104C79.6509 104 78.0178 102.338 77.2602 100.968L79.2425 99.3933Z" fill="white"/>
<path d="M99.1257 95.8655V87.0319L93.2366 95.8655H99.1257ZM89.8258 96.3029L98.6594 83.2126H102.304V95.8655H104.84V98.6647H102.304V103.62H99.1257V98.6647H89.8258V96.3029Z" fill="white"/>
<path d="M106.968 102.455C106.968 96.6822 116.327 93.3877 116.327 88.8975C116.327 87.0902 115.161 85.8366 113.149 85.8366C111.166 85.8366 110.204 87.1191 109.796 88.6062L106.968 87.79C107.377 85.9241 109.038 82.8335 113.266 82.8335C117.172 82.8335 119.621 85.2822 119.621 88.7812C119.621 94.5538 111.254 97.5273 110.759 100.764H119.883V103.621H106.968V102.455Z" fill="white"/>
<script xmlns=""/></svg>
