<svg xmlns="http://www.w3.org/2000/svg" width="256" height="256" viewBox="0 0 100 100"><rect width="100" height="100" rx="20" fill="#4f46e5"/><path fill="#fff" d="M23.03 80.97q-4.44 0-4.44-2.52v-56.2q0-2.53 4.44-2.53h2.26q1.57 0 2.52.44.96.43 1.57 1.74l17.23 32.01q1.04 1.92 2.69 6.36l.44-.18q-.7-3.48-.7-6.52V22.25q0-2.53 4.44-2.53h1.74q4.44 0 4.44 2.53v56.2q0 2.52-4.44 2.52h-1.74q-1.57 0-2.61-.43-1.04-.44-1.57-1.66l-18-33.23q-.88-1.57-2.35-5.48l-.44.17q.7 3.22.7 5.92v32.19q0 2.52-4.44 2.52h-1.74Zm51.94 0q-4.61 0-4.61-2.52v-40.8q0-2.53 4.61-2.53h1.74q4.61 0 4.61 2.53v40.8q0 2.52-4.61 2.52h-1.74Zm.96-50.72q-5.57 0-5.57-2.52v-6.27q0-2.43 5.57-2.43 5.48 0 5.48 2.43v6.27q0 2.52-5.48 2.52Z"/></svg>
